<svg width="512" height="512" version="1.1" xmlns="http://www.w3.org/2000/svg" desc="Created with imagetracer.js version 1.2.6" ><path fill="rgb(240,101,41)" stroke="rgb(240,101,41)" stroke-width="1" opacity="1" d="M 256 131 L 403.5 131 L 404 131.5 L 404 139.5 L 403 140.5 L 400 184.5 L 399 185.5 L 399 195.5 L 398 196.5 L 398 206.5 L 397 207.5 L 394 251.5 L 393 252.5 L 393 262.5 L 392 263.5 L 392 273.5 L 391 274.5 L 388 318.5 L 387 319.5 L 387 329.5 L 386 330.5 L 386 340.5 L 385 341.5 L 385 351.5 L 384 352.5 L 382 385.5 L 381 386.5 L 381 396.5 L 380 397.5 L 380 407.5 L 379 408.5 L 379 418.5 L 378 419.5 L 378 429.5 L 377 430.5 L 377 440.5 L 376 447 L 256 480 L 256 433.5 L 259.5 433 L 349 408 L 361 268 L 256 268 L 256 222 L 364.5 222 L 366 220.5 L 369 179.5 L 370 176 L 256 176 L 256 131 Z " /><path fill="rgb(240,101,41)" stroke="rgb(240,101,41)" stroke-width="1" opacity="1" d="M 142.5 183 L 143 185.5 L 142 185.5 L 142.5 183 Z " /><path fill="rgb(240,101,41)" stroke="rgb(240,101,41)" stroke-width="1" opacity="1" d="M 143.5 194 L 144 196.5 L 143 196.5 L 143.5 194 Z " /><path fill="rgb(240,101,41)" stroke="rgb(240,101,41)" stroke-width="1" opacity="1" d="M 144.5 205 L 145 207.5 L 144 207.5 L 144.5 205 Z " /><path fill="rgb(240,101,41)" stroke="rgb(240,101,41)" stroke-width="1" opacity="1" d="M 145.5 216 L 146 218.5 L 145 218.5 L 145.5 216 Z " /><path fill="rgb(240,101,41)" stroke="rgb(240,101,41)" stroke-width="1" opacity="1" d="M 192.5 225 L 193 227.5 L 192 227.5 L 192.5 225 Z " /><path fill="rgb(240,101,41)" stroke="rgb(240,101,41)" stroke-width="1" opacity="1" d="M 146.5 227 L 147 230.5 L 146 230.5 L 146.5 227 Z " /><path fill="rgb(240,101,41)" stroke="rgb(240,101,41)" stroke-width="1" opacity="1" d="M 193.5 236 L 194 238.5 L 193 238.5 L 193.5 236 Z " /><path fill="rgb(240,101,41)" stroke="rgb(240,101,41)" stroke-width="1" opacity="1" d="M 147.5 238 L 148 241.5 L 147 241.5 L 147.5 238 Z " /><path fill="rgb(240,101,41)" stroke="rgb(240,101,41)" stroke-width="1" opacity="1" d="M 194.5 247 L 195 250.5 L 194 250.5 L 194.5 247 Z " /><path fill="rgb(240,101,41)" stroke="rgb(240,101,41)" stroke-width="1" opacity="1" d="M 148.5 249 L 149 252.5 L 148 252.5 L 148.5 249 Z " /><path fill="rgb(240,101,41)" stroke="rgb(240,101,41)" stroke-width="1" opacity="1" d="M 195.5 258 L 196 261.5 L 195 261.5 L 195.5 258 Z " /><path fill="rgb(240,101,41)" stroke="rgb(240,101,41)" stroke-width="1" opacity="1" d="M 149.5 260 L 150 263.5 L 149 263.5 L 149.5 260 Z " /><path fill="rgb(240,101,41)" stroke="rgb(240,101,41)" stroke-width="1" opacity="1" d="M 150.5 271 L 151 274.5 L 150 274.5 L 150.5 271 Z " /><path fill="rgb(240,101,41)" stroke="rgb(240,101,41)" stroke-width="1" opacity="1" d="M 151.5 282 L 152 285.5 L 151 285.5 L 151.5 282 Z " /><path fill="rgb(240,101,41)" stroke="rgb(240,101,41)" stroke-width="1" opacity="1" d="M 152.5 294 L 153 296.5 L 152 296.5 L 152.5 294 Z " /><path fill="rgb(240,101,41)" stroke="rgb(240,101,41)" stroke-width="1" opacity="1" d="M 153.5 305 L 154 307.5 L 153 307.5 L 153.5 305 Z " /><path fill="rgb(240,101,41)" stroke="rgb(240,101,41)" stroke-width="1" opacity="1" d="M 256 314 L 312 314.5 L 311 315.5 L 311 325.5 L 310 326.5 L 310 336.5 L 309 337.5 L 309 347.5 L 308 348.5 L 308 358.5 L 307 359.5 L 307 370.5 L 306 373 L 256 386 L 256 314 Z " /><path fill="rgb(240,101,41)" stroke="rgb(240,101,41)" stroke-width="1" opacity="1" d="M 202.5 337 L 203 340.5 L 202 340.5 L 202.5 337 Z " /><path fill="rgb(240,101,41)" stroke="rgb(240,101,41)" stroke-width="1" opacity="1" d="M 156.5 338 L 157 341.5 L 156 341.5 L 156.5 338 Z " /><path fill="rgb(240,101,41)" stroke="rgb(240,101,41)" stroke-width="1" opacity="1" d="M 203.5 349 L 204 351.5 L 203 351.5 L 203.5 349 Z " /><path fill="rgb(240,101,41)" stroke="rgb(240,101,41)" stroke-width="1" opacity="1" d="M 157.5 350 L 158 352.5 L 157 352.5 L 157.5 350 Z " /><path fill="rgb(240,101,41)" stroke="rgb(240,101,41)" stroke-width="1" opacity="1" d="M 204.5 360 L 205 363.5 L 204 363.5 L 204.5 360 Z " /><path fill="rgb(240,101,41)" stroke="rgb(240,101,41)" stroke-width="1" opacity="1" d="M 158.5 361 L 159 363.5 L 158 363.5 L 158.5 361 Z " /><path fill="rgb(240,101,41)" stroke="rgb(240,101,41)" stroke-width="1" opacity="1" d="M 159.5 372 L 160 374.5 L 159 374.5 L 159.5 372 Z " /><path fill="rgb(240,101,41)" stroke="rgb(240,101,41)" stroke-width="1" opacity="1" d="M 160.5 383 L 161 385.5 L 160 385.5 L 160.5 383 Z " /><path fill="rgb(240,101,41)" stroke="rgb(240,101,41)" stroke-width="1" opacity="1" d="M 161.5 394 L 162 397.5 L 161 397.5 L 161.5 394 Z " /><path fill="rgb(240,101,41)" stroke="rgb(240,101,41)" stroke-width="1" opacity="1" d="M 162.5 405 L 163 407.5 L 162 407.5 L 162.5 405 Z " /><path fill="rgb(0,0,0)" stroke="rgb(0,0,0)" stroke-width="1" opacity="0" d="M 0 0 L 108 0 L 108 69 L 132 69 L 132 46 L 152 46 L 152 69 L 176 69 L 176 0.5 L 176.5 0 L 185 0 L 185 23 L 205.5 23 L 206 23.5 L 206 69 L 229 69 L 229 23 L 250 23 L 250 0 L 259 0 L 259 69 L 283 69 L 283.5 38 L 297 60 L 300 58.5 L 313.5 37 L 314 69 L 338 69 L 338 0.5 L 338.5 0 L 348 0 L 348 69 L 405 69 L 405 46 L 372 46 L 372 0 L 511.5 0 L 512 0.5 L 512 512 L 260 511.5 L 382.5 477 L 400.5 473 L 405 470.5 L 407 442.5 L 408 441.5 L 408 431.5 L 409 430.5 L 409 419.5 L 410 418.5 L 410 408.5 L 411 407.5 L 411 397.5 L 412 396.5 L 412 386.5 L 413 385.5 L 413 375.5 L 414 374.5 L 415 352.5 L 416 351.5 L 416 341.5 L 417 340.5 L 417 330.5 L 418 329.5 L 419 307.5 L 420 306.5 L 420 296.5 L 421 295.5 L 421 285.5 L 422 284.5 L 422 274.5 L 423 273.5 L 423 262.5 L 424 261.5 L 424 251.5 L 425 250.5 L 425 240.5 L 426 239.5 L 426 229.5 L 427 228.5 L 427 218.5 L 428 217.5 L 428 206.5 L 429 205.5 L 429 195.5 L 430 194.5 L 430 184.5 L 431 183.5 L 431 173.5 L 432 172.5 L 432 161.5 L 433 160.5 L 433 150.5 L 434 149.5 L 434 139.5 L 435 138.5 L 435 128.5 L 436 127.5 L 436 117.5 L 437 116.5 L 437 105.5 L 438 100 L 74.5 100 Q 73.5 100 74 104.5 L 75 105.5 L 75 116.5 L 76 117.5 L 76 127.5 L 77 128.5 L 79 160.5 L 80 161.5 L 80 172.5 L 81 173.5 L 81 183.5 L 82 184.5 L 82 194.5 L 83 195.5 L 83 205.5 L 84 206.5 L 84 217.5 L 85 218.5 L 85 228.5 L 86 229.5 L 86 239.5 L 87 240.5 L 89 273.5 L 90 274.5 L 90 284.5 L 91 285.5 L 93 318.5 L 94 319.5 L 94 329.5 L 95 330.5 L 95 340.5 L 96 341.5 L 96 351.5 L 97 352.5 L 98 374.5 L 99 375.5 L 99 385.5 L 100 386.5 L 100 396.5 L 101 397.5 L 102 419.5 L 103 420.5 L 103 430.5 L 104 431.5 L 104 441.5 L 105 442.5 L 105 452.5 L 106 453.5 L 107 472 L 114.5 473 L 125.5 477 L 132.5 478 L 143.5 482 L 150.5 483 L 252 511.5 L 0 512 L 0 0 Z " /><path fill="rgb(0,0,0)" stroke="rgb(0,0,0)" stroke-width="1" opacity="0" d="M 132 0 L 152 0 L 152 22 L 132 22 L 132 0 Z " /><path fill="rgb(0,0,0)" stroke="rgb(0,0,0)" stroke-width="1" opacity="0" d="M 285 0 L 311.5 0 L 312 1.5 L 298.5 23 L 285 0 Z " /><path fill="rgb(228,77,38)" stroke="rgb(228,77,38)" stroke-width="1" opacity="1" d="M 75 101 L 436.5 101 L 437 104.5 L 436 105.5 L 433 149.5 L 432 150.5 L 432 160.5 L 431 161.5 L 431 171.5 L 430 172.5 L 430 182.5 L 429 183.5 L 429 194.5 L 428 195.5 L 428 205.5 L 427 206.5 L 427 216.5 L 426 217.5 L 426 227.5 L 425 228.5 L 425 238.5 L 424 239.5 L 424 250.5 L 423 251.5 L 423 261.5 L 422 262.5 L 422 272.5 L 421 273.5 L 421 283.5 L 420 284.5 L 420 294.5 L 419 295.5 L 419 306.5 L 418 307.5 L 415 351.5 L 414 352.5 L 414 362.5 L 413 363.5 L 413 373.5 L 412 374.5 L 412 384.5 L 411 385.5 L 411 395.5 L 410 396.5 L 410 407.5 L 409 408.5 L 409 418.5 L 408 419.5 L 408 429.5 L 407 430.5 L 407 440.5 L 406 441.5 L 405 463.5 Q 402.8 464.8 404 469.5 L 402.5 471 L 280.5 505 L 273.5 506 L 262.5 510 L 253.5 511 L 108 471 L 107 453.5 L 106 452.5 L 106 441.5 L 105 440.5 L 105 430.5 L 104 429.5 L 104 419.5 L 103 418.5 L 103 408.5 L 102 407.5 L 102 397.5 L 101 396.5 L 100 374.5 L 99 373.5 L 99 363.5 L 98 362.5 L 98 352.5 L 97 351.5 L 96 329.5 L 95 328.5 L 95 318.5 L 94 317.5 L 94 307.5 L 93 306.5 L 93 296.5 L 92 295.5 L 90 262.5 L 89 261.5 L 89 251.5 L 88 250.5 L 86 217.5 L 85 216.5 L 85 206.5 L 84 205.5 L 84 195.5 L 83 194.5 L 83 183.5 L 82 182.5 L 82 172.5 L 81 171.5 L 81 161.5 L 80 160.5 L 80 150.5 L 79 149.5 L 79 138.5 L 78 137.5 L 78 127.5 L 77 126.5 L 77 116.5 L 76 115.5 Q 76.8 106.3 75 101 Z M 256 131 L 256 176 L 142 176 L 144 208 L 145 209 L 145 219 L 146 220 L 146 231 L 147 232 L 147 242 L 148 243 L 148 253 L 149 254 L 149 264 L 150 265 L 150 275 L 151 276 L 151 286 L 152 287 L 152 297 L 153 298 L 153 308 L 154 309 Q 153 314 155 314 L 256 314 L 256 386 L 218 375 L 206 373 L 205 371 L 203 338 L 202 336 L 156 336 L 162 408 L 255 434 L 256 435 L 256 480 L 376 447 L 377 441 L 377 431 L 378 430 L 378 420 L 379 419 L 379 409 L 380 408 L 380 398 L 381 397 L 381 387 L 382 386 L 384 353 L 385 352 L 385 342 L 386 341 L 386 331 L 387 330 L 387 320 L 388 319 L 391 275 L 392 274 L 392 264 L 393 263 L 393 253 L 394 252 L 397 208 L 398 207 L 398 197 L 399 196 L 399 186 L 400 185 L 403 141 L 404 140 L 404 132 L 404 131 L 256 131 Z " /><path fill="rgb(228,77,38)" stroke="rgb(228,77,38)" stroke-width="1" opacity="1" d="M 192 222 L 256 222 L 256 268 L 196.5 268 L 196 267.5 L 196 258.5 L 195 257.5 L 193 225.5 L 192 222 Z " /><path fill="rgb(241,195,180)" stroke="rgb(241,195,180)" stroke-width="1" opacity="1" d="M 142.5 176 L 369.5 176 L 370 178.5 L 369 178.5 L 368.5 177 L 142.5 177 L 142.5 176 Z " /><path fill="rgb(241,195,180)" stroke="rgb(241,195,180)" stroke-width="1" opacity="1" d="M 142.5 178 L 143 182.5 L 142 182.5 L 142.5 178 Z " /><path fill="rgb(241,195,180)" stroke="rgb(241,195,180)" stroke-width="1" opacity="1" d="M 368.5 185 L 369 189.5 L 368 189.5 L 368.5 185 Z " /><path fill="rgb(241,195,180)" stroke="rgb(241,195,180)" stroke-width="1" opacity="1" d="M 143.5 189 L 144 193.5 L 143 193.5 L 143.5 189 Z " /><path fill="rgb(241,195,180)" stroke="rgb(241,195,180)" stroke-width="1" opacity="1" d="M 367.5 196 L 368 200.5 L 367 200.5 L 367.5 196 Z " /><path fill="rgb(241,195,180)" stroke="rgb(241,195,180)" stroke-width="1" opacity="1" d="M 144.5 200 L 145 204.5 L 144 204.5 L 144.5 200 Z " /><path fill="rgb(241,195,180)" stroke="rgb(241,195,180)" stroke-width="1" opacity="1" d="M 366.5 207 L 367 211.5 L 366 211.5 L 366.5 207 Z " /><path fill="rgb(241,195,180)" stroke="rgb(241,195,180)" stroke-width="1" opacity="1" d="M 145.5 211 L 146 215.5 L 145 215.5 L 145.5 211 Z " /><path fill="rgb(241,195,180)" stroke="rgb(241,195,180)" stroke-width="1" opacity="1" d="M 365.5 218 L 366 220.5 L 364.5 222 L 192.5 222 L 192.5 221 L 364.5 221 L 365.5 218 Z " /><path fill="rgb(241,195,180)" stroke="rgb(241,195,180)" stroke-width="1" opacity="1" d="M 146.5 222 L 147 226.5 L 146 226.5 L 146.5 222 Z " /><path fill="rgb(241,195,180)" stroke="rgb(241,195,180)" stroke-width="1" opacity="1" d="M 192.5 228 L 193 232.5 L 192 232.5 L 192.5 228 Z " /><path fill="rgb(241,195,180)" stroke="rgb(241,195,180)" stroke-width="1" opacity="1" d="M 147.5 233 L 148 237.5 L 147 237.5 L 147.5 233 Z " /><path fill="rgb(241,195,180)" stroke="rgb(241,195,180)" stroke-width="1" opacity="1" d="M 193.5 239 L 194 243.5 L 193 243.5 L 193.5 239 Z " /><path fill="rgb(241,195,180)" stroke="rgb(241,195,180)" stroke-width="1" opacity="1" d="M 148.5 244 L 149 248.5 L 148 248.5 L 148.5 244 Z " /><path fill="rgb(241,195,180)" stroke="rgb(241,195,180)" stroke-width="1" opacity="1" d="M 194.5 251 L 195 255.5 L 194 255.5 L 194.5 251 Z " /><path fill="rgb(241,195,180)" stroke="rgb(241,195,180)" stroke-width="1" opacity="1" d="M 149.5 255 L 150 259.5 L 149 259.5 L 149.5 255 Z " /><path fill="rgb(241,195,180)" stroke="rgb(241,195,180)" stroke-width="1" opacity="1" d="M 195.5 262 L 196 266.5 L 195 266.5 L 195.5 262 Z " /><path fill="rgb(241,195,180)" stroke="rgb(241,195,180)" stroke-width="1" opacity="1" d="M 150.5 266 L 151 270.5 L 150 270.5 L 150.5 266 Z " /><path fill="rgb(241,195,180)" stroke="rgb(241,195,180)" stroke-width="1" opacity="1" d="M 196.5 268 L 256 268.5 L 196.5 269 L 196.5 268 Z " /><path fill="rgb(241,195,180)" stroke="rgb(241,195,180)" stroke-width="1" opacity="1" d="M 360.5 274 L 361 278.5 L 360 278.5 L 360.5 274 Z " /><path fill="rgb(241,195,180)" stroke="rgb(241,195,180)" stroke-width="1" opacity="1" d="M 151.5 277 L 152 281.5 L 151 281.5 L 151.5 277 Z " /><path fill="rgb(241,195,180)" stroke="rgb(241,195,180)" stroke-width="1" opacity="1" d="M 359.5 285 L 360 289.5 L 359 289.5 L 359.5 285 Z " /><path fill="rgb(241,195,180)" stroke="rgb(241,195,180)" stroke-width="1" opacity="1" d="M 152.5 289 L 153 293.5 L 152 293.5 L 152.5 289 Z " /><path fill="rgb(241,195,180)" stroke="rgb(241,195,180)" stroke-width="1" opacity="1" d="M 358.5 296 L 359 300.5 L 358 300.5 L 358.5 296 Z " /><path fill="rgb(241,195,180)" stroke="rgb(241,195,180)" stroke-width="1" opacity="1" d="M 153.5 300 L 154 304.5 L 153 304.5 L 153.5 300 Z " /><path fill="rgb(241,195,180)" stroke="rgb(241,195,180)" stroke-width="1" opacity="1" d="M 357.5 308 L 358 312.5 L 357 312.5 L 357.5 308 Z " /><path fill="rgb(241,195,180)" stroke="rgb(241,195,180)" stroke-width="1" opacity="1" d="M 154.5 311 L 155 313 L 312 313.5 L 155.5 314 L 154.5 311 Z " /><path fill="rgb(241,195,180)" stroke="rgb(241,195,180)" stroke-width="1" opacity="1" d="M 311.5 315 L 312 319.5 L 311 319.5 L 311.5 315 Z " /><path fill="rgb(241,195,180)" stroke="rgb(241,195,180)" stroke-width="1" opacity="1" d="M 356.5 319 L 357 323.5 L 356 323.5 L 356.5 319 Z " /><path fill="rgb(241,195,180)" stroke="rgb(241,195,180)" stroke-width="1" opacity="1" d="M 310.5 326 L 311 330.5 L 310 330.5 L 310.5 326 Z " /><path fill="rgb(241,195,180)" stroke="rgb(241,195,180)" stroke-width="1" opacity="1" d="M 355.5 330 L 356 334.5 L 355 334.5 L 355.5 330 Z " /><path fill="rgb(241,195,180)" stroke="rgb(241,195,180)" stroke-width="1" opacity="1" d="M 157.5 336 L 202 336.5 L 157.5 337 L 156.5 338 L 157.5 336 Z " /><path fill="rgb(241,195,180)" stroke="rgb(241,195,180)" stroke-width="1" opacity="1" d="M 309.5 337 L 310 341.5 L 309 341.5 L 309.5 337 Z " /><path fill="rgb(241,195,180)" stroke="rgb(241,195,180)" stroke-width="1" opacity="1" d="M 202.5 341 L 203 345.5 L 202 345.5 L 202.5 341 Z " /><path fill="rgb(241,195,180)" stroke="rgb(241,195,180)" stroke-width="1" opacity="1" d="M 354.5 341 L 355 345.5 L 354 345.5 L 354.5 341 Z " /><path fill="rgb(241,195,180)" stroke="rgb(241,195,180)" stroke-width="1" opacity="1" d="M 157.5 345 L 158 349.5 L 157 349.5 L 157.5 345 Z " /><path fill="rgb(241,195,180)" stroke="rgb(241,195,180)" stroke-width="1" opacity="1" d="M 308.5 348 L 309 352.5 L 308 352.5 L 308.5 348 Z " /><path fill="rgb(241,195,180)" stroke="rgb(241,195,180)" stroke-width="1" opacity="1" d="M 203.5 352 L 204 356.5 L 203 356.5 L 203.5 352 Z " /><path fill="rgb(241,195,180)" stroke="rgb(241,195,180)" stroke-width="1" opacity="1" d="M 353.5 352 L 354 356.5 L 353 356.5 L 353.5 352 Z " /><path fill="rgb(241,195,180)" stroke="rgb(241,195,180)" stroke-width="1" opacity="1" d="M 158.5 356 L 159 360.5 L 158 360.5 L 158.5 356 Z " /><path fill="rgb(241,195,180)" stroke="rgb(241,195,180)" stroke-width="1" opacity="1" d="M 307.5 359 L 308 363.5 L 307 363.5 L 307.5 359 Z " /><path fill="rgb(241,195,180)" stroke="rgb(241,195,180)" stroke-width="1" opacity="1" d="M 352.5 363 L 353 367.5 L 352 367.5 L 352.5 363 Z " /><path fill="rgb(241,195,180)" stroke="rgb(241,195,180)" stroke-width="1" opacity="1" d="M 204.5 364 L 205 368.5 L 204 368.5 L 204.5 364 Z " /><path fill="rgb(241,195,180)" stroke="rgb(241,195,180)" stroke-width="1" opacity="1" d="M 159.5 367 L 160 371.5 L 159 371.5 L 159.5 367 Z " /><path fill="rgb(241,195,180)" stroke="rgb(241,195,180)" stroke-width="1" opacity="1" d="M 351.5 374 L 352 379.5 L 351 379.5 L 351.5 374 Z " /><path fill="rgb(241,195,180)" stroke="rgb(241,195,180)" stroke-width="1" opacity="1" d="M 160.5 378 L 161 382.5 L 160 382.5 L 160.5 378 Z " /><path fill="rgb(241,195,180)" stroke="rgb(241,195,180)" stroke-width="1" opacity="1" d="M 350.5 386 L 351 390.5 L 350 390.5 L 350.5 386 Z " /><path fill="rgb(241,195,180)" stroke="rgb(241,195,180)" stroke-width="1" opacity="1" d="M 161.5 389 L 162 393.5 L 161 393.5 L 161.5 389 Z " /><path fill="rgb(241,195,180)" stroke="rgb(241,195,180)" stroke-width="1" opacity="1" d="M 349.5 397 L 350 401.5 L 349 401.5 L 349.5 397 Z " /><path fill="rgb(241,195,180)" stroke="rgb(241,195,180)" stroke-width="1" opacity="1" d="M 162.5 400 L 163 404.5 L 162 404.5 L 162.5 400 Z " /><path fill="rgb(235,235,235)" stroke="rgb(235,235,235)" stroke-width="1" opacity="1" d="M 142.5 177 L 256 177 L 256 221 L 192.5 221 L 192 221.5 L 192 232.5 L 193 233.5 L 193 243.5 L 194 244.5 L 195 266.5 L 196 269 L 255.5 269 L 256.5 268 L 360.5 268 L 360.5 269 L 256.5 269 L 256 269.5 L 256 313 L 155 313 L 154 310.5 L 154 300.5 L 153 299.5 L 153 289.5 L 152 288.5 L 152 277.5 L 151 276.5 L 151 266.5 L 150 265.5 L 150 255.5 L 149 254.5 L 149 244.5 L 148 243.5 L 148 233.5 L 147 232.5 L 147 222.5 L 146 221.5 L 146 211.5 L 145 210.5 L 145 200.5 L 144 199.5 L 144 189.5 L 143 188.5 L 143 178.5 L 142.5 177 Z " /><path fill="rgb(235,235,235)" stroke="rgb(235,235,235)" stroke-width="1" opacity="1" d="M 157 337 L 201.5 337 L 202 337.5 L 202 345.5 L 203 346.5 L 204 368.5 L 205 373 L 256 386 L 256 432.5 L 253.5 433 L 217.5 422 L 167.5 409 L 163 406.5 L 157 337 Z " /><path fill="rgb(255,255,255)" stroke="rgb(255,255,255)" stroke-width="1" opacity="1" d="M 108 0 L 132 0 L 132 22 L 152 22 L 152 0 L 176 0 L 176 69 L 152 69 L 152 46 L 132 46 L 132 69 L 108 69 L 108 0 Z " /><path fill="rgb(255,255,255)" stroke="rgb(255,255,255)" stroke-width="1" opacity="1" d="M 185 0 L 250 0 L 250 23 L 229 23 L 229 69 L 206 69 L 206 23.5 L 205.5 23 L 185 23 L 185 0 Z " /><path fill="rgb(255,255,255)" stroke="rgb(255,255,255)" stroke-width="1" opacity="1" d="M 259 0 L 284.5 0 L 285 1.5 L 298.5 23 L 312 0 L 338 0 L 338 69 L 314 69 L 314 37.5 L 313 37.5 L 298.5 60 Q 296.3 60.8 297 58.5 L 283.5 38 L 283 69 L 259 69 L 259 0 Z " /><path fill="rgb(255,255,255)" stroke="rgb(255,255,255)" stroke-width="1" opacity="1" d="M 348 0 L 372 0 L 372 46 L 405 46 L 405 69 L 348 69 L 348 0 Z " /><path fill="rgb(255,255,255)" stroke="rgb(255,255,255)" stroke-width="1" opacity="1" d="M 256 177 L 368.5 177 Q 369.6 177.1 369 182.5 L 368 183.5 L 368 193.5 L 367 194.5 L 367 204.5 L 366 205.5 L 365 221 L 256 221 L 256 177 Z " /><path fill="rgb(255,255,255)" stroke="rgb(255,255,255)" stroke-width="1" opacity="1" d="M 256 269 L 360.5 269 L 361 271.5 L 360 272.5 L 360 282.5 L 359 283.5 L 359 293.5 L 358 294.5 L 358 304.5 L 357 305.5 L 357 315.5 L 356 316.5 L 356 326.5 L 355 327.5 L 355 338.5 L 354 339.5 L 354 349.5 L 353 350.5 L 353 360.5 L 352 361.5 L 352 371.5 L 351 372.5 L 351 382.5 L 350 383.5 L 350 393.5 L 349 394.5 L 349 405.5 L 346.5 408 L 256.5 433 L 256 387.5 L 257.5 386 L 307 373 L 312 313 L 256 313 L 256 269 Z " /><path fill="rgb(227,76,37)" stroke="rgb(227,76,37)" stroke-width="1" opacity="0.788235294117647" d="M 75.5 106 L 76 109.5 L 75 109.5 L 75.5 106 Z " /><path fill="rgb(227,76,37)" stroke="rgb(227,76,37)" stroke-width="1" opacity="0.788235294117647" d="M 436.5 106 L 437 109.5 L 436 109.5 L 436.5 106 Z " /><path fill="rgb(227,76,37)" stroke="rgb(227,76,37)" stroke-width="1" opacity="0.788235294117647" d="M 76.5 117 L 77 120.5 L 76 120.5 L 76.5 117 Z " /><path fill="rgb(227,76,37)" stroke="rgb(227,76,37)" stroke-width="1" opacity="0.788235294117647" d="M 435.5 117 L 436 120.5 L 435 120.5 L 435.5 117 Z " /><path fill="rgb(227,76,37)" stroke="rgb(227,76,37)" stroke-width="1" opacity="0.788235294117647" d="M 77.5 129 L 78 132.5 L 77 132.5 L 77.5 129 Z " /><path fill="rgb(227,76,37)" stroke="rgb(227,76,37)" stroke-width="1" opacity="0.788235294117647" d="M 434.5 129 L 435 131.5 L 434 131.5 L 434.5 129 Z " /><path fill="rgb(227,76,37)" stroke="rgb(227,76,37)" stroke-width="1" opacity="0.788235294117647" d="M 78.5 140 L 79 143.5 L 78 143.5 L 78.5 140 Z " /><path fill="rgb(227,76,37)" stroke="rgb(227,76,37)" stroke-width="1" opacity="0.788235294117647" d="M 433.5 140 L 434 143.5 L 433 143.5 L 433.5 140 Z " /><path fill="rgb(227,76,37)" stroke="rgb(227,76,37)" stroke-width="1" opacity="0.788235294117647" d="M 79.5 151 L 80 154.5 L 79 154.5 L 79.5 151 Z " /><path fill="rgb(227,76,37)" stroke="rgb(227,76,37)" stroke-width="1" opacity="0.788235294117647" d="M 432.5 151 L 433 154.5 L 432 154.5 L 432.5 151 Z " /><path fill="rgb(227,76,37)" stroke="rgb(227,76,37)" stroke-width="1" opacity="0.788235294117647" d="M 80.5 162 L 81 165.5 L 80 165.5 L 80.5 162 Z " /><path fill="rgb(227,76,37)" stroke="rgb(227,76,37)" stroke-width="1" opacity="0.788235294117647" d="M 431.5 162 L 432 165.5 L 431 165.5 L 431.5 162 Z " /><path fill="rgb(227,76,37)" stroke="rgb(227,76,37)" stroke-width="1" opacity="0.788235294117647" d="M 81.5 174 L 82 176.5 L 81 176.5 L 81.5 174 Z " /><path fill="rgb(227,76,37)" stroke="rgb(227,76,37)" stroke-width="1" opacity="0.788235294117647" d="M 430.5 174 L 431 176.5 L 430 176.5 L 430.5 174 Z " /><path fill="rgb(227,76,37)" stroke="rgb(227,76,37)" stroke-width="1" opacity="0.788235294117647" d="M 82.5 185 L 83 188.5 L 82 188.5 L 82.5 185 Z " /><path fill="rgb(227,76,37)" stroke="rgb(227,76,37)" stroke-width="1" opacity="0.788235294117647" d="M 429.5 185 L 430 188.5 L 429 188.5 L 429.5 185 Z " /><path fill="rgb(227,76,37)" stroke="rgb(227,76,37)" stroke-width="1" opacity="0.788235294117647" d="M 83.5 196 L 84 199.5 L 83 199.5 L 83.5 196 Z " /><path fill="rgb(227,76,37)" stroke="rgb(227,76,37)" stroke-width="1" opacity="0.788235294117647" d="M 428.5 196 L 429 199.5 L 428 199.5 L 428.5 196 Z " /><path fill="rgb(227,76,37)" stroke="rgb(227,76,37)" stroke-width="1" opacity="0.788235294117647" d="M 84.5 207 L 85 210.5 L 84 210.5 L 84.5 207 Z " /><path fill="rgb(227,76,37)" stroke="rgb(227,76,37)" stroke-width="1" opacity="0.788235294117647" d="M 427.5 207 L 428 210.5 L 427 210.5 L 427.5 207 Z " /><path fill="rgb(227,76,37)" stroke="rgb(227,76,37)" stroke-width="1" opacity="0.788235294117647" d="M 85.5 218 L 86 221.5 L 85 221.5 L 85.5 218 Z " /><path fill="rgb(227,76,37)" stroke="rgb(227,76,37)" stroke-width="1" opacity="0.788235294117647" d="M 426.5 218 L 427 221.5 L 426 221.5 L 426.5 218 Z " /><path fill="rgb(227,76,37)" stroke="rgb(227,76,37)" stroke-width="1" opacity="0.788235294117647" d="M 86.5 230 L 87 233.5 L 86 233.5 L 86.5 230 Z " /><path fill="rgb(227,76,37)" stroke="rgb(227,76,37)" stroke-width="1" opacity="0.788235294117647" d="M 425.5 230 L 426 232.5 L 425 232.5 L 425.5 230 Z " /><path fill="rgb(227,76,37)" stroke="rgb(227,76,37)" stroke-width="1" opacity="0.788235294117647" d="M 87.5 241 L 88 244.5 L 87 244.5 L 87.5 241 Z " /><path fill="rgb(227,76,37)" stroke="rgb(227,76,37)" stroke-width="1" opacity="0.788235294117647" d="M 424.5 241 L 425 244.5 L 424 244.5 L 424.5 241 Z " /><path fill="rgb(227,76,37)" stroke="rgb(227,76,37)" stroke-width="1" opacity="0.788235294117647" d="M 88.5 252 L 89 255.5 L 88 255.5 L 88.5 252 Z " /><path fill="rgb(227,76,37)" stroke="rgb(227,76,37)" stroke-width="1" opacity="0.788235294117647" d="M 423.5 252 L 424 255.5 L 423 255.5 L 423.5 252 Z " /><path fill="rgb(227,76,37)" stroke="rgb(227,76,37)" stroke-width="1" opacity="0.788235294117647" d="M 89.5 263 L 90 266.5 L 89 266.5 L 89.5 263 Z " /><path fill="rgb(227,76,37)" stroke="rgb(227,76,37)" stroke-width="1" opacity="0.788235294117647" d="M 422.5 263 L 423 266.5 L 422 266.5 L 422.5 263 Z " /><path fill="rgb(227,76,37)" stroke="rgb(227,76,37)" stroke-width="1" opacity="0.788235294117647" d="M 421.5 274 L 422 277.5 L 421 277.5 L 421.5 274 Z " /><path fill="rgb(227,76,37)" stroke="rgb(227,76,37)" stroke-width="1" opacity="0.788235294117647" d="M 90.5 275 L 91 277.5 L 90 277.5 L 90.5 275 Z " /><path fill="rgb(227,76,37)" stroke="rgb(227,76,37)" stroke-width="1" opacity="0.788235294117647" d="M 91.5 286 L 92 289.5 L 91 289.5 L 91.5 286 Z " /><path fill="rgb(227,76,37)" stroke="rgb(227,76,37)" stroke-width="1" opacity="0.788235294117647" d="M 420.5 286 L 421 289.5 L 420 289.5 L 420.5 286 Z " /><path fill="rgb(227,76,37)" stroke="rgb(227,76,37)" stroke-width="1" opacity="0.788235294117647" d="M 92.5 297 L 93 300.5 L 92 300.5 L 92.5 297 Z " /><path fill="rgb(227,76,37)" stroke="rgb(227,76,37)" stroke-width="1" opacity="0.788235294117647" d="M 419.5 297 L 420 300.5 L 419 300.5 L 419.5 297 Z " /><path fill="rgb(227,76,37)" stroke="rgb(227,76,37)" stroke-width="1" opacity="0.788235294117647" d="M 93.5 308 L 94 311.5 L 93 311.5 L 93.5 308 Z " /><path fill="rgb(227,76,37)" stroke="rgb(227,76,37)" stroke-width="1" opacity="0.788235294117647" d="M 418.5 308 L 419 311.5 L 418 311.5 L 418.5 308 Z " /><path fill="rgb(227,76,37)" stroke="rgb(227,76,37)" stroke-width="1" opacity="0.788235294117647" d="M 417.5 319 L 418 322.5 L 417 322.5 L 417.5 319 Z " /><path fill="rgb(227,76,37)" stroke="rgb(227,76,37)" stroke-width="1" opacity="0.788235294117647" d="M 94.5 320 L 95 322.5 L 94 322.5 L 94.5 320 Z " /><path fill="rgb(227,76,37)" stroke="rgb(227,76,37)" stroke-width="1" opacity="0.788235294117647" d="M 95.5 331 L 96 334.5 L 95 334.5 L 95.5 331 Z " /><path fill="rgb(227,76,37)" stroke="rgb(227,76,37)" stroke-width="1" opacity="0.788235294117647" d="M 416.5 331 L 417 333.5 L 416 333.5 L 416.5 331 Z " /><path fill="rgb(227,76,37)" stroke="rgb(227,76,37)" stroke-width="1" opacity="0.788235294117647" d="M 96.5 342 L 97 345.5 L 96 345.5 L 96.5 342 Z " /><path fill="rgb(227,76,37)" stroke="rgb(227,76,37)" stroke-width="1" opacity="0.788235294117647" d="M 415.5 342 L 416 345.5 L 415 345.5 L 415.5 342 Z " /><path fill="rgb(227,76,37)" stroke="rgb(227,76,37)" stroke-width="1" opacity="0.788235294117647" d="M 97.5 353 L 98 356.5 L 97 356.5 L 97.5 353 Z " /><path fill="rgb(227,76,37)" stroke="rgb(227,76,37)" stroke-width="1" opacity="0.788235294117647" d="M 414.5 353 L 415 356.5 L 414 356.5 L 414.5 353 Z " /><path fill="rgb(227,76,37)" stroke="rgb(227,76,37)" stroke-width="1" opacity="0.788235294117647" d="M 98.5 364 L 99 367.5 L 98 367.5 L 98.5 364 Z " /><path fill="rgb(227,76,37)" stroke="rgb(227,76,37)" stroke-width="1" opacity="0.788235294117647" d="M 413.5 364 L 414 367.5 L 413 367.5 L 413.5 364 Z " /><path fill="rgb(227,76,37)" stroke="rgb(227,76,37)" stroke-width="1" opacity="0.788235294117647" d="M 412.5 375 L 413 378.5 L 412 378.5 L 412.5 375 Z " /><path fill="rgb(227,76,37)" stroke="rgb(227,76,37)" stroke-width="1" opacity="0.788235294117647" d="M 99.5 376 L 100 378.5 L 99 378.5 L 99.5 376 Z " /><path fill="rgb(227,76,37)" stroke="rgb(227,76,37)" stroke-width="1" opacity="0.788235294117647" d="M 100.5 387 L 101 390.5 L 100 390.5 L 100.5 387 Z " /><path fill="rgb(227,76,37)" stroke="rgb(227,76,37)" stroke-width="1" opacity="0.788235294117647" d="M 411.5 387 L 412 390.5 L 411 390.5 L 411.5 387 Z " /><path fill="rgb(227,76,37)" stroke="rgb(227,76,37)" stroke-width="1" opacity="0.788235294117647" d="M 101.5 398 L 102 401.5 L 101 401.5 L 101.5 398 Z " /><path fill="rgb(227,76,37)" stroke="rgb(227,76,37)" stroke-width="1" opacity="0.788235294117647" d="M 410.5 398 L 411 401.5 L 410 401.5 L 410.5 398 Z " /><path fill="rgb(227,76,37)" stroke="rgb(227,76,37)" stroke-width="1" opacity="0.788235294117647" d="M 102.5 409 L 103 412.5 L 102 412.5 L 102.5 409 Z " /><path fill="rgb(227,76,37)" stroke="rgb(227,76,37)" stroke-width="1" opacity="0.788235294117647" d="M 409.5 409 L 410 412.5 L 409 412.5 L 409.5 409 Z " /><path fill="rgb(227,76,37)" stroke="rgb(227,76,37)" stroke-width="1" opacity="0.788235294117647" d="M 408.5 420 L 409 423.5 L 408 423.5 L 408.5 420 Z " /><path fill="rgb(227,76,37)" stroke="rgb(227,76,37)" stroke-width="1" opacity="0.788235294117647" d="M 103.5 421 L 104 423.5 L 103 423.5 L 103.5 421 Z " /><path fill="rgb(227,76,37)" stroke="rgb(227,76,37)" stroke-width="1" opacity="0.788235294117647" d="M 104.5 432 L 105 435.5 L 104 435.5 L 104.5 432 Z " /><path fill="rgb(227,76,37)" stroke="rgb(227,76,37)" stroke-width="1" opacity="0.788235294117647" d="M 407.5 432 L 408 434.5 L 407 434.5 L 407.5 432 Z " /><path fill="rgb(227,76,37)" stroke="rgb(227,76,37)" stroke-width="1" opacity="0.788235294117647" d="M 105.5 443 L 106 446.5 L 105 446.5 L 105.5 443 Z " /><path fill="rgb(227,76,37)" stroke="rgb(227,76,37)" stroke-width="1" opacity="0.788235294117647" d="M 406.5 443 L 407 446.5 L 406 446.5 L 406.5 443 Z " /><path fill="rgb(227,76,37)" stroke="rgb(227,76,37)" stroke-width="1" opacity="0.788235294117647" d="M 106.5 454 L 107 457.5 L 106 457.5 L 106.5 454 Z " /><path fill="rgb(227,76,37)" stroke="rgb(227,76,37)" stroke-width="1" opacity="0.788235294117647" d="M 405.5 454 L 406 457.5 L 405 457.5 L 405.5 454 Z " /><path fill="rgb(227,76,37)" stroke="rgb(227,76,37)" stroke-width="1" opacity="0.788235294117647" d="M 107.5 465 L 108 468.5 L 107 468.5 L 107.5 465 Z " /><path fill="rgb(227,76,37)" stroke="rgb(227,76,37)" stroke-width="1" opacity="0.788235294117647" d="M 404.5 465 L 405 468.5 L 404 468.5 L 404.5 465 Z " /><path fill="rgb(227,75,34)" stroke="rgb(227,75,34)" stroke-width="1" opacity="0.32941176470588235" d="M 74 100 L 437.5 100 Q 438.5 100 438 104.5 L 437 104.5 L 436.5 101 L 75 101 L 74.5 105 L 74 100 Z " /><path fill="rgb(227,75,34)" stroke="rgb(227,75,34)" stroke-width="1" opacity="0.32941176470588235" d="M 75.5 110 L 76 116.5 L 75 116.5 L 75.5 110 Z " /><path fill="rgb(227,75,34)" stroke="rgb(227,75,34)" stroke-width="1" opacity="0.32941176470588235" d="M 436.5 110 L 437 116.5 L 436 116.5 L 436.5 110 Z " /><path fill="rgb(227,75,34)" stroke="rgb(227,75,34)" stroke-width="1" opacity="0.32941176470588235" d="M 76.5 121 L 77 127.5 L 76 127.5 L 76.5 121 Z " /><path fill="rgb(227,75,34)" stroke="rgb(227,75,34)" stroke-width="1" opacity="0.32941176470588235" d="M 435.5 121 L 436 127.5 L 435 127.5 L 435.5 121 Z " /><path fill="rgb(227,75,34)" stroke="rgb(227,75,34)" stroke-width="1" opacity="0.32941176470588235" d="M 434.5 132 L 435 138.5 L 434 138.5 L 434.5 132 Z " /><path fill="rgb(227,75,34)" stroke="rgb(227,75,34)" stroke-width="1" opacity="0.32941176470588235" d="M 77.5 133 L 78 138.5 L 77 138.5 L 77.5 133 Z " /><path fill="rgb(227,75,34)" stroke="rgb(227,75,34)" stroke-width="1" opacity="0.32941176470588235" d="M 78.5 144 L 79 149.5 L 78 149.5 L 78.5 144 Z " /><path fill="rgb(227,75,34)" stroke="rgb(227,75,34)" stroke-width="1" opacity="0.32941176470588235" d="M 433.5 144 L 434 149.5 L 433 149.5 L 433.5 144 Z " /><path fill="rgb(227,75,34)" stroke="rgb(227,75,34)" stroke-width="1" opacity="0.32941176470588235" d="M 79.5 155 L 80 160.5 L 79 160.5 L 79.5 155 Z " /><path fill="rgb(227,75,34)" stroke="rgb(227,75,34)" stroke-width="1" opacity="0.32941176470588235" d="M 432.5 155 L 433 160.5 L 432 160.5 L 432.5 155 Z " /><path fill="rgb(227,75,34)" stroke="rgb(227,75,34)" stroke-width="1" opacity="0.32941176470588235" d="M 80.5 166 L 81 172.5 L 80 172.5 L 80.5 166 Z " /><path fill="rgb(227,75,34)" stroke="rgb(227,75,34)" stroke-width="1" opacity="0.32941176470588235" d="M 431.5 166 L 432 172.5 L 431 172.5 L 431.5 166 Z " /><path fill="rgb(227,75,34)" stroke="rgb(227,75,34)" stroke-width="1" opacity="0.32941176470588235" d="M 81.5 177 L 82 183.5 L 81 183.5 L 81.5 177 Z " /><path fill="rgb(227,75,34)" stroke="rgb(227,75,34)" stroke-width="1" opacity="0.32941176470588235" d="M 430.5 177 L 431 183.5 L 430 183.5 L 430.5 177 Z " /><path fill="rgb(227,75,34)" stroke="rgb(227,75,34)" stroke-width="1" opacity="0.32941176470588235" d="M 82.5 189 L 83 194.5 L 82 194.5 L 82.5 189 Z " /><path fill="rgb(227,75,34)" stroke="rgb(227,75,34)" stroke-width="1" opacity="0.32941176470588235" d="M 429.5 189 L 430 194.5 L 429 194.5 L 429.5 189 Z " /><path fill="rgb(227,75,34)" stroke="rgb(227,75,34)" stroke-width="1" opacity="0.32941176470588235" d="M 83.5 200 L 84 205.5 L 83 205.5 L 83.5 200 Z " /><path fill="rgb(227,75,34)" stroke="rgb(227,75,34)" stroke-width="1" opacity="0.32941176470588235" d="M 428.5 200 L 429 205.5 L 428 205.5 L 428.5 200 Z " /><path fill="rgb(227,75,34)" stroke="rgb(227,75,34)" stroke-width="1" opacity="0.32941176470588235" d="M 84.5 211 L 85 217.5 L 84 217.5 L 84.5 211 Z " /><path fill="rgb(227,75,34)" stroke="rgb(227,75,34)" stroke-width="1" opacity="0.32941176470588235" d="M 427.5 211 L 428 217.5 L 427 217.5 L 427.5 211 Z " /><path fill="rgb(227,75,34)" stroke="rgb(227,75,34)" stroke-width="1" opacity="0.32941176470588235" d="M 85.5 222 L 86 228.5 L 85 228.5 L 85.5 222 Z " /><path fill="rgb(227,75,34)" stroke="rgb(227,75,34)" stroke-width="1" opacity="0.32941176470588235" d="M 426.5 222 L 427 228.5 L 426 228.5 L 426.5 222 Z " /><path fill="rgb(227,75,34)" stroke="rgb(227,75,34)" stroke-width="1" opacity="0.32941176470588235" d="M 425.5 233 L 426 239.5 L 425 239.5 L 425.5 233 Z " /><path fill="rgb(227,75,34)" stroke="rgb(227,75,34)" stroke-width="1" opacity="0.32941176470588235" d="M 86.5 234 L 87 239.5 L 86 239.5 L 86.5 234 Z " /><path fill="rgb(227,75,34)" stroke="rgb(227,75,34)" stroke-width="1" opacity="0.32941176470588235" d="M 87.5 245 L 88 250.5 L 87 250.5 L 87.5 245 Z " /><path fill="rgb(227,75,34)" stroke="rgb(227,75,34)" stroke-width="1" opacity="0.32941176470588235" d="M 424.5 245 L 425 250.5 L 424 250.5 L 424.5 245 Z " /><path fill="rgb(227,75,34)" stroke="rgb(227,75,34)" stroke-width="1" opacity="0.32941176470588235" d="M 88.5 256 L 89 261.5 L 88 261.5 L 88.5 256 Z " /><path fill="rgb(227,75,34)" stroke="rgb(227,75,34)" stroke-width="1" opacity="0.32941176470588235" d="M 423.5 256 L 424 261.5 L 423 261.5 L 423.5 256 Z " /><path fill="rgb(227,75,34)" stroke="rgb(227,75,34)" stroke-width="1" opacity="0.32941176470588235" d="M 89.5 267 L 90 273.5 L 89 273.5 L 89.5 267 Z " /><path fill="rgb(227,75,34)" stroke="rgb(227,75,34)" stroke-width="1" opacity="0.32941176470588235" d="M 422.5 267 L 423 273.5 L 422 273.5 L 422.5 267 Z " /><path fill="rgb(227,75,34)" stroke="rgb(227,75,34)" stroke-width="1" opacity="0.32941176470588235" d="M 90.5 278 L 91 284.5 L 90 284.5 L 90.5 278 Z " /><path fill="rgb(227,75,34)" stroke="rgb(227,75,34)" stroke-width="1" opacity="0.32941176470588235" d="M 421.5 278 L 422 284.5 L 421 284.5 L 421.5 278 Z " /><path fill="rgb(227,75,34)" stroke="rgb(227,75,34)" stroke-width="1" opacity="0.32941176470588235" d="M 91.5 290 L 92 295.5 L 91 295.5 L 91.5 290 Z " /><path fill="rgb(227,75,34)" stroke="rgb(227,75,34)" stroke-width="1" opacity="0.32941176470588235" d="M 420.5 290 L 421 295.5 L 420 295.5 L 420.5 290 Z " /><path fill="rgb(227,75,34)" stroke="rgb(227,75,34)" stroke-width="1" opacity="0.32941176470588235" d="M 92.5 301 L 93 306.5 L 92 306.5 L 92.5 301 Z " /><path fill="rgb(227,75,34)" stroke="rgb(227,75,34)" stroke-width="1" opacity="0.32941176470588235" d="M 419.5 301 L 420 306.5 L 419 306.5 L 419.5 301 Z " /><path fill="rgb(227,75,34)" stroke="rgb(227,75,34)" stroke-width="1" opacity="0.32941176470588235" d="M 93.5 312 L 94 318.5 L 93 318.5 L 93.5 312 Z " /><path fill="rgb(227,75,34)" stroke="rgb(227,75,34)" stroke-width="1" opacity="0.32941176470588235" d="M 418.5 312 L 419 317.5 L 418 317.5 L 418.5 312 Z " /><path fill="rgb(227,75,34)" stroke="rgb(227,75,34)" stroke-width="1" opacity="0.32941176470588235" d="M 94.5 323 L 95 329.5 L 94 329.5 L 94.5 323 Z " /><path fill="rgb(227,75,34)" stroke="rgb(227,75,34)" stroke-width="1" opacity="0.32941176470588235" d="M 417.5 323 L 418 329.5 L 417 329.5 L 417.5 323 Z " /><path fill="rgb(227,75,34)" stroke="rgb(227,75,34)" stroke-width="1" opacity="0.32941176470588235" d="M 416.5 334 L 417 340.5 L 416 340.5 L 416.5 334 Z " /><path fill="rgb(227,75,34)" stroke="rgb(227,75,34)" stroke-width="1" opacity="0.32941176470588235" d="M 95.5 335 L 96 340.5 L 95 340.5 L 95.5 335 Z " /><path fill="rgb(227,75,34)" stroke="rgb(227,75,34)" stroke-width="1" opacity="0.32941176470588235" d="M 96.5 346 L 97 351.5 L 96 351.5 L 96.5 346 Z " /><path fill="rgb(227,75,34)" stroke="rgb(227,75,34)" stroke-width="1" opacity="0.32941176470588235" d="M 415.5 346 L 416 351.5 L 415 351.5 L 415.5 346 Z " /><path fill="rgb(227,75,34)" stroke="rgb(227,75,34)" stroke-width="1" opacity="0.32941176470588235" d="M 97.5 357 L 98 362.5 L 97 362.5 L 97.5 357 Z " /><path fill="rgb(227,75,34)" stroke="rgb(227,75,34)" stroke-width="1" opacity="0.32941176470588235" d="M 414.5 357 L 415 362.5 L 414 362.5 L 414.5 357 Z " /><path fill="rgb(227,75,34)" stroke="rgb(227,75,34)" stroke-width="1" opacity="0.32941176470588235" d="M 98.5 368 L 99 374.5 L 98 374.5 L 98.5 368 Z " /><path fill="rgb(227,75,34)" stroke="rgb(227,75,34)" stroke-width="1" opacity="0.32941176470588235" d="M 413.5 368 L 414 374.5 L 413 374.5 L 413.5 368 Z " /><path fill="rgb(227,75,34)" stroke="rgb(227,75,34)" stroke-width="1" opacity="0.32941176470588235" d="M 99.5 379 L 100 385.5 L 99 385.5 L 99.5 379 Z " /><path fill="rgb(227,75,34)" stroke="rgb(227,75,34)" stroke-width="1" opacity="0.32941176470588235" d="M 412.5 379 L 413 385.5 L 412 385.5 L 412.5 379 Z " /><path fill="rgb(227,75,34)" stroke="rgb(227,75,34)" stroke-width="1" opacity="0.32941176470588235" d="M 100.5 391 L 101 396.5 L 100 396.5 L 100.5 391 Z " /><path fill="rgb(227,75,34)" stroke="rgb(227,75,34)" stroke-width="1" opacity="0.32941176470588235" d="M 411.5 391 L 412 396.5 L 411 396.5 L 411.5 391 Z " /><path fill="rgb(227,75,34)" stroke="rgb(227,75,34)" stroke-width="1" opacity="0.32941176470588235" d="M 101.5 402 L 102 407.5 L 101 407.5 L 101.5 402 Z " /><path fill="rgb(227,75,34)" stroke="rgb(227,75,34)" stroke-width="1" opacity="0.32941176470588235" d="M 410.5 402 L 411 407.5 L 410 407.5 L 410.5 402 Z " /><path fill="rgb(227,75,34)" stroke="rgb(227,75,34)" stroke-width="1" opacity="0.32941176470588235" d="M 102.5 413 L 103 419.5 L 102 419.5 L 102.5 413 Z " /><path fill="rgb(227,75,34)" stroke="rgb(227,75,34)" stroke-width="1" opacity="0.32941176470588235" d="M 409.5 413 L 410 418.5 L 409 418.5 L 409.5 413 Z " /><path fill="rgb(227,75,34)" stroke="rgb(227,75,34)" stroke-width="1" opacity="0.32941176470588235" d="M 103.5 424 L 104 430.5 L 103 430.5 L 103.5 424 Z " /><path fill="rgb(227,75,34)" stroke="rgb(227,75,34)" stroke-width="1" opacity="0.32941176470588235" d="M 408.5 424 L 409 430.5 L 408 430.5 L 408.5 424 Z " /><path fill="rgb(227,75,34)" stroke="rgb(227,75,34)" stroke-width="1" opacity="0.32941176470588235" d="M 407.5 435 L 408 441.5 L 407 441.5 L 407.5 435 Z " /><path fill="rgb(227,75,34)" stroke="rgb(227,75,34)" stroke-width="1" opacity="0.32941176470588235" d="M 104.5 436 L 105 441.5 L 104 441.5 L 104.5 436 Z " /><path fill="rgb(227,75,34)" stroke="rgb(227,75,34)" stroke-width="1" opacity="0.32941176470588235" d="M 105.5 447 L 106 452.5 L 105 452.5 L 105.5 447 Z " /><path fill="rgb(227,75,34)" stroke="rgb(227,75,34)" stroke-width="1" opacity="0.32941176470588235" d="M 406.5 447 L 407 452.5 L 406 452.5 L 406.5 447 Z " /><path fill="rgb(227,75,34)" stroke="rgb(227,75,34)" stroke-width="1" opacity="0.32941176470588235" d="M 106.5 458 L 107 464.5 L 106 464.5 L 106.5 458 Z " /><path fill="rgb(227,75,34)" stroke="rgb(227,75,34)" stroke-width="1" opacity="0.32941176470588235" d="M 405.5 458 L 406 463.5 L 405 463.5 L 405.5 458 Z " /><path fill="rgb(227,75,34)" stroke="rgb(227,75,34)" stroke-width="1" opacity="0.32941176470588235" d="M 107.5 469 L 108 471 L 110 471.5 L 107 472 L 107.5 469 Z " /><path fill="rgb(227,75,34)" stroke="rgb(227,75,34)" stroke-width="1" opacity="0.32941176470588235" d="M 404.5 469 L 405 470.5 L 402.5 472 L 402.5 471 Q 405 471.7 404.5 469 Z " /><path fill="rgb(227,75,34)" stroke="rgb(227,75,34)" stroke-width="1" opacity="0.32941176470588235" d="M 398.5 472 L 401 472.5 L 398.5 473 L 398.5 472 Z " /><path fill="rgb(227,75,34)" stroke="rgb(227,75,34)" stroke-width="1" opacity="0.32941176470588235" d="M 118.5 474 L 121 474.5 L 118.5 475 L 118.5 474 Z " /><path fill="rgb(227,75,34)" stroke="rgb(227,75,34)" stroke-width="1" opacity="0.32941176470588235" d="M 387.5 475 L 390 475.5 L 387.5 476 L 387.5 475 Z " /><path fill="rgb(227,75,34)" stroke="rgb(227,75,34)" stroke-width="1" opacity="0.32941176470588235" d="M 125.5 476 L 128 476.5 L 125.5 477 L 125.5 476 Z " /><path fill="rgb(227,75,34)" stroke="rgb(227,75,34)" stroke-width="1" opacity="0.32941176470588235" d="M 136.5 479 L 139 479.5 L 136.5 480 L 136.5 479 Z " /><path fill="rgb(227,75,34)" stroke="rgb(227,75,34)" stroke-width="1" opacity="0.32941176470588235" d="M 369.5 480 L 372 480.5 L 369.5 481 L 369.5 480 Z " /><path fill="rgb(227,75,34)" stroke="rgb(227,75,34)" stroke-width="1" opacity="0.32941176470588235" d="M 143.5 481 L 146 481.5 L 143.5 482 L 143.5 481 Z " /><path fill="rgb(227,75,34)" stroke="rgb(227,75,34)" stroke-width="1" opacity="0.32941176470588235" d="M 358.5 483 L 361 483.5 L 358.5 484 L 358.5 483 Z " /><path fill="rgb(227,75,34)" stroke="rgb(227,75,34)" stroke-width="1" opacity="0.32941176470588235" d="M 154.5 484 L 157 484.5 L 154.5 485 L 154.5 484 Z " /><path fill="rgb(227,75,34)" stroke="rgb(227,75,34)" stroke-width="1" opacity="0.32941176470588235" d="M 351.5 485 L 354 485.5 L 351.5 486 L 351.5 485 Z " /><path fill="rgb(227,75,34)" stroke="rgb(227,75,34)" stroke-width="1" opacity="0.32941176470588235" d="M 165.5 487 L 168 487.5 L 165.5 488 L 165.5 487 Z " /><path fill="rgb(227,75,34)" stroke="rgb(227,75,34)" stroke-width="1" opacity="0.32941176470588235" d="M 340.5 488 L 343 488.5 L 340.5 489 L 340.5 488 Z " /><path fill="rgb(227,75,34)" stroke="rgb(227,75,34)" stroke-width="1" opacity="0.32941176470588235" d="M 172.5 489 L 175 489.5 L 172.5 490 L 172.5 489 Z " /><path fill="rgb(227,75,34)" stroke="rgb(227,75,34)" stroke-width="1" opacity="0.32941176470588235" d="M 333.5 490 L 336 490.5 L 333.5 491 L 333.5 490 Z " /><path fill="rgb(227,75,34)" stroke="rgb(227,75,34)" stroke-width="1" opacity="0.32941176470588235" d="M 183.5 492 L 186 492.5 L 183.5 493 L 183.5 492 Z " /><path fill="rgb(227,75,34)" stroke="rgb(227,75,34)" stroke-width="1" opacity="0.32941176470588235" d="M 322.5 493 L 325 493.5 L 322.5 494 L 322.5 493 Z " /><path fill="rgb(227,75,34)" stroke="rgb(227,75,34)" stroke-width="1" opacity="0.32941176470588235" d="M 190.5 494 L 193 494.5 L 190.5 495 L 190.5 494 Z " /><path fill="rgb(227,75,34)" stroke="rgb(227,75,34)" stroke-width="1" opacity="0.32941176470588235" d="M 201.5 497 L 204 497.5 L 201.5 498 L 201.5 497 Z " /><path fill="rgb(227,75,34)" stroke="rgb(227,75,34)" stroke-width="1" opacity="0.32941176470588235" d="M 304.5 498 L 307 498.5 L 304.5 499 L 304.5 498 Z " /><path fill="rgb(227,75,34)" stroke="rgb(227,75,34)" stroke-width="1" opacity="0.32941176470588235" d="M 208.5 499 L 211 499.5 L 208.5 500 L 208.5 499 Z " /><path fill="rgb(227,75,34)" stroke="rgb(227,75,34)" stroke-width="1" opacity="0.32941176470588235" d="M 212.5 500 L 215 500.5 L 212.5 501 L 212.5 500 Z " /><path fill="rgb(227,75,34)" stroke="rgb(227,75,34)" stroke-width="1" opacity="0.32941176470588235" d="M 293.5 501 L 296 501.5 L 293.5 502 L 293.5 501 Z " /><path fill="rgb(227,75,34)" stroke="rgb(227,75,34)" stroke-width="1" opacity="0.32941176470588235" d="M 219.5 502 L 222 502.5 L 219.5 503 L 219.5 502 Z " /><path fill="rgb(227,75,34)" stroke="rgb(227,75,34)" stroke-width="1" opacity="0.32941176470588235" d="M 286.5 503 L 289 503.5 L 286.5 504 L 286.5 503 Z " /><path fill="rgb(227,75,34)" stroke="rgb(227,75,34)" stroke-width="1" opacity="0.32941176470588235" d="M 230.5 505 L 233 505.5 L 230.5 506 L 230.5 505 Z " /><path fill="rgb(227,75,34)" stroke="rgb(227,75,34)" stroke-width="1" opacity="0.32941176470588235" d="M 275.5 506 L 278 506.5 L 275.5 507 L 275.5 506 Z " /><path fill="rgb(227,75,34)" stroke="rgb(227,75,34)" stroke-width="1" opacity="0.32941176470588235" d="M 237.5 507 L 240 507.5 L 237.5 508 L 237.5 507 Z " /><path fill="rgb(227,75,34)" stroke="rgb(227,75,34)" stroke-width="1" opacity="0.32941176470588235" d="M 268.5 508 L 271 508.5 L 268.5 509 L 268.5 508 Z " /><path fill="rgb(227,75,34)" stroke="rgb(227,75,34)" stroke-width="1" opacity="0.32941176470588235" d="M 248.5 510 L 251 510.5 L 248.5 511 L 248.5 510 Z " /><path fill="rgb(227,75,34)" stroke="rgb(227,75,34)" stroke-width="1" opacity="0.32941176470588235" d="M 257.5 511 L 260 511.5 L 257.5 512 L 257.5 511 Z " /></svg>