<svg xmlns="http://www.w3.org/2000/svg" xmlns:xlink="http://www.w3.org/1999/xlink" width="400" height="400" viewBox="0 0 400 400">
  <defs>
    <!-- Define gradients -->
    <linearGradient id="gradient-20">
      <stop stop-color="#616162" offset="0"></stop>
      <stop stop-color="#e6e7e9" offset="0.5"></stop>
      <stop stop-color="#616162" offset="1"></stop>
    </linearGradient>
    <linearGradient id="gradient-19">
      <stop stop-color="#905e25" offset="0"></stop>
      <stop stop-color="#f5ec8b" offset="0.5"></stop>
      <stop stop-color="#905e36" offset="1"></stop>
    </linearGradient>
    <!-- Define clipping path for the box -->
    <clipPath id="clip-box">
      <rect x="52.8" y="52.8" width="295" height="295"></rect>
    </clipPath>
  </defs>

  <!-- Background clipped to the box -->
  <rect data-name="background" width="100%" height="100%" fill="url(#gradient-20)" clip-path="url(#clip-box)"></rect>

  <!-- Box -->
  <g data-name="container" data="container_num:16" fill="#481919" transform="translate(52.8,52.8) scale(2.8280499934223036)">
    <path d="M0 0v104.1h104.1V0zm101.7 101.7H2.4V2.4h99.3z"></path>
    <rect x="-3" y="-3" width="110.1" height="110.1" fill="transparent" pointer-events="all"></rect>
  </g>

  <!-- Business Name -->
  <g data-name="business_name" fill="#8d1616" data="id:220" transform="translate(130.245,93.392) scale(3.2384)">
    <path d="M26.4,7.92c12.08,0,16.68,6.64,16.68,14.08c0,9.36-7.36,20-16.16,20c-0.48,0-0.92-0.04-1.36-0.08c3.08,5.88,5,13,10.12,13c0.32,0,0.48,0.16,0.48,0.36c0,0.8-2.04,2.64-5.08,2.64c-9.6,0-7.6-15.84-12.6-19.84c-4.28,8.28-9,16.04-12.88,16.04c-2.96,0-4.76-2.56-4.76-3.52c0-0.24,0.08-0.4,0.32-0.4c9.48,0,20.52-35.36,24.44-35.64l0.2,0c2.16,0,4.16,2.64,4.16,3.72c0,0.24-0.12,0.44-0.36,0.44c-1.68,0.16-4.92,7.04-8.72,14.68c0.56,2.56,2.12,5.24,4.72,5.24c6,0,11.96-9.72,11.96-17.8c0-5.72-3-10.64-11.2-10.64c-11.68,0-20.4,12.12-20.4,19.96c0,1.96,0.56,3.64,1.72,4.8c0.12,0.16,0.2,0.28,0.2,0.44c0,0.76-1.56,1.56-3.24,1.56c-2.88,0-4.64-2.28-4.64-6.36c0-8.52,7.84-22.68,26.4-22.68z"></path>
    <rect x="-3" y="4.92" width="49.08" height="56" fill="transparent" pointer-events="all"></rect>
  </g>
</svg>
