<svg width="512" height="512" version="1.1" xmlns="http://www.w3.org/2000/svg" desc="Created with imagetracer.js version 1.2.6" ><path fill="rgb(192,192,192)" stroke="rgb(192,192,192)" stroke-width="1" opacity="0.7529411764705882" d="M 41.5 0 L 45 0.5 L 41.5 1 L 41.5 0 Z " /><path fill="rgb(192,192,192)" stroke="rgb(192,192,192)" stroke-width="1" opacity="0.7529411764705882" d="M 467.5 0 L 471 0.5 L 467.5 1 L 467.5 0 Z " /><path fill="rgb(192,192,192)" stroke="rgb(192,192,192)" stroke-width="1" opacity="0.7529411764705882" d="M 18.5 9 L 16.5 12 L 18.5 9 Z " /><path fill="rgb(192,192,192)" stroke="rgb(192,192,192)" stroke-width="1" opacity="0.7529411764705882" d="M 493.5 9 L 495.5 12 L 493.5 9 Z " /><path fill="rgb(192,192,192)" stroke="rgb(192,192,192)" stroke-width="1" opacity="0.7529411764705882" d="M 11.5 16 L 9.5 19 L 11.5 16 Z " /><path fill="rgb(192,192,192)" stroke="rgb(192,192,192)" stroke-width="1" opacity="0.7529411764705882" d="M 500.5 16 L 502.5 19 L 500.5 16 Z " /><path fill="rgb(192,192,192)" stroke="rgb(192,192,192)" stroke-width="1" opacity="0.7529411764705882" d="M 0.5 41 L 1 44.5 L 0 44.5 L 0.5 41 Z " /><path fill="rgb(192,192,192)" stroke="rgb(192,192,192)" stroke-width="1" opacity="0.7529411764705882" d="M 511.5 41 L 512 44.5 L 511 44.5 L 511.5 41 Z " /><path fill="rgb(192,192,192)" stroke="rgb(192,192,192)" stroke-width="1" opacity="0.7529411764705882" d="M 110.5 56 L 115 56.5 L 110.5 57 L 110.5 56 Z " /><path fill="rgb(192,192,192)" stroke="rgb(192,192,192)" stroke-width="1" opacity="0.7529411764705882" d="M 118.5 56 L 123 56.5 L 118.5 57 L 118.5 56 Z " /><path fill="rgb(192,192,192)" stroke="rgb(192,192,192)" stroke-width="1" opacity="0.7529411764705882" d="M 149.5 67 L 150.5 69 L 149.5 67 Z " /><path fill="rgb(192,192,192)" stroke="rgb(192,192,192)" stroke-width="1" opacity="0.7529411764705882" d="M 80.5 69 L 74.5 76 L 80.5 69 Z " /><path fill="rgb(192,192,192)" stroke="rgb(192,192,192)" stroke-width="1" opacity="0.7529411764705882" d="M 72.5 78 L 71.5 80 L 72.5 78 Z " /><path fill="rgb(192,192,192)" stroke="rgb(192,192,192)" stroke-width="1" opacity="0.7529411764705882" d="M 161.5 80 L 162.5 82 L 161.5 80 Z " /><path fill="rgb(192,192,192)" stroke="rgb(192,192,192)" stroke-width="1" opacity="0.7529411764705882" d="M 61.5 108 L 62 112.5 L 61 112.5 L 61.5 108 Z " /><path fill="rgb(192,192,192)" stroke="rgb(192,192,192)" stroke-width="1" opacity="0.7529411764705882" d="M 170.5 116 L 171 118.5 L 170 118.5 L 170.5 116 Z " /><path fill="rgb(192,192,192)" stroke="rgb(192,192,192)" stroke-width="1" opacity="0.7529411764705882" d="M 69.5 139 L 70.5 141 L 69.5 139 Z " /><path fill="rgb(192,192,192)" stroke="rgb(192,192,192)" stroke-width="1" opacity="0.7529411764705882" d="M 71.5 142 L 72.5 144 L 71.5 142 Z " /><path fill="rgb(192,192,192)" stroke="rgb(192,192,192)" stroke-width="1" opacity="0.7529411764705882" d="M 159.5 144 L 158.5 146 L 159.5 144 Z " /><path fill="rgb(192,192,192)" stroke="rgb(192,192,192)" stroke-width="1" opacity="0.7529411764705882" d="M 75.5 147 L 79.5 152 L 75.5 147 Z " /><path fill="rgb(192,192,192)" stroke="rgb(192,192,192)" stroke-width="1" opacity="0.7529411764705882" d="M 151.5 152 L 149.5 155 L 151.5 152 Z " /><path fill="rgb(192,192,192)" stroke="rgb(192,192,192)" stroke-width="1" opacity="0.7529411764705882" d="M 83.5 154 L 84.5 156 L 83.5 154 Z " /><path fill="rgb(192,192,192)" stroke="rgb(192,192,192)" stroke-width="1" opacity="0.7529411764705882" d="M 144.5 157 L 143.5 159 L 144.5 157 Z " /><path fill="rgb(192,192,192)" stroke="rgb(192,192,192)" stroke-width="1" opacity="0.7529411764705882" d="M 110.5 165 L 122 165.5 L 110.5 166 L 110.5 165 Z " /><path fill="rgb(192,192,192)" stroke="rgb(192,192,192)" stroke-width="1" opacity="0.7529411764705882" d="M 344.5 184 L 351 184.5 L 344.5 185 L 344.5 184 Z " /><path fill="rgb(192,192,192)" stroke="rgb(192,192,192)" stroke-width="1" opacity="0.7529411764705882" d="M 371.5 184 L 375 184.5 L 371.5 185 L 371.5 184 Z " /><path fill="rgb(192,192,192)" stroke="rgb(192,192,192)" stroke-width="1" opacity="0.7529411764705882" d="M 331.5 186 L 334 186.5 L 331.5 187 L 331.5 186 Z " /><path fill="rgb(192,192,192)" stroke="rgb(192,192,192)" stroke-width="1" opacity="0.7529411764705882" d="M 79.5 190 L 76.5 194 L 79.5 190 Z " /><path fill="rgb(192,192,192)" stroke="rgb(192,192,192)" stroke-width="1" opacity="0.7529411764705882" d="M 199.5 192 L 198.5 194 L 199.5 192 Z " /><path fill="rgb(192,192,192)" stroke="rgb(192,192,192)" stroke-width="1" opacity="0.7529411764705882" d="M 196.5 197 L 197 199.5 L 196 199.5 L 196.5 197 Z " /><path fill="rgb(192,192,192)" stroke="rgb(192,192,192)" stroke-width="1" opacity="0.7529411764705882" d="M 416.5 198 L 417.5 200 L 416.5 198 Z " /><path fill="rgb(192,192,192)" stroke="rgb(192,192,192)" stroke-width="1" opacity="0.7529411764705882" d="M 158.5 199 L 159 444.5 L 158 444.5 L 158.5 199 Z " /><path fill="rgb(192,192,192)" stroke="rgb(192,192,192)" stroke-width="1" opacity="0.7529411764705882" d="M 298.5 201 L 296.5 204 L 298.5 201 Z " /><path fill="rgb(192,192,192)" stroke="rgb(192,192,192)" stroke-width="1" opacity="0.7529411764705882" d="M 425.5 205 L 428.5 209 L 425.5 205 Z " /><path fill="rgb(192,192,192)" stroke="rgb(192,192,192)" stroke-width="1" opacity="0.7529411764705882" d="M 287.5 212 L 285.5 215 L 287.5 212 Z " /><path fill="rgb(192,192,192)" stroke="rgb(192,192,192)" stroke-width="1" opacity="0.7529411764705882" d="M 432.5 213 L 434.5 216 L 432.5 213 Z " /><path fill="rgb(192,192,192)" stroke="rgb(192,192,192)" stroke-width="1" opacity="0.7529411764705882" d="M 283.5 217 L 282.5 219 L 283.5 217 Z " /><path fill="rgb(192,192,192)" stroke="rgb(192,192,192)" stroke-width="1" opacity="0.7529411764705882" d="M 334.5 257 L 337 257.5 L 334.5 258 L 334.5 257 Z " /><path fill="rgb(192,192,192)" stroke="rgb(192,192,192)" stroke-width="1" opacity="0.7529411764705882" d="M 353.5 264 L 354.5 266 L 353.5 264 Z " /><path fill="rgb(192,192,192)" stroke="rgb(192,192,192)" stroke-width="1" opacity="0.7529411764705882" d="M 301.5 265 L 295.5 272 L 301.5 265 Z " /><path fill="rgb(192,192,192)" stroke="rgb(192,192,192)" stroke-width="1" opacity="0.7529411764705882" d="M 359.5 270 L 360.5 272 L 359.5 270 Z " /><path fill="rgb(192,192,192)" stroke="rgb(192,192,192)" stroke-width="1" opacity="0.7529411764705882" d="M 293.5 274 L 292.5 276 L 293.5 274 Z " /><path fill="rgb(192,192,192)" stroke="rgb(192,192,192)" stroke-width="1" opacity="0.7529411764705882" d="M 456.5 277 L 457 279.5 L 456 279.5 L 456.5 277 Z " /><path fill="rgb(192,192,192)" stroke="rgb(192,192,192)" stroke-width="1" opacity="0.7529411764705882" d="M 457.5 289 L 458 294.5 L 457 294.5 L 457.5 289 Z " /><path fill="rgb(192,192,192)" stroke="rgb(192,192,192)" stroke-width="1" opacity="0.7529411764705882" d="M 370.5 297 L 371 299.5 L 370 299.5 L 370.5 297 Z " /><path fill="rgb(192,192,192)" stroke="rgb(192,192,192)" stroke-width="1" opacity="0.7529411764705882" d="M 281.5 307 L 282 309.5 L 281 309.5 L 281.5 307 Z " /><path fill="rgb(192,192,192)" stroke="rgb(192,192,192)" stroke-width="1" opacity="0.7529411764705882" d="M 371.5 307 L 372 310.5 L 371 310.5 L 371.5 307 Z " /><path fill="rgb(192,192,192)" stroke="rgb(192,192,192)" stroke-width="1" opacity="0.7529411764705882" d="M 458.5 309 L 459 444.5 L 458 444.5 L 458.5 309 Z " /><path fill="rgb(192,192,192)" stroke="rgb(192,192,192)" stroke-width="1" opacity="0.7529411764705882" d="M 156.5 449 L 155.5 451 L 156.5 449 Z " /><path fill="rgb(192,192,192)" stroke="rgb(192,192,192)" stroke-width="1" opacity="0.7529411764705882" d="M 373.5 449 L 374.5 451 L 373.5 449 Z " /><path fill="rgb(192,192,192)" stroke="rgb(192,192,192)" stroke-width="1" opacity="0.7529411764705882" d="M 278.5 450 L 276.5 453 L 278.5 450 Z " /><path fill="rgb(192,192,192)" stroke="rgb(192,192,192)" stroke-width="1" opacity="0.7529411764705882" d="M 199.5 451 L 200.5 453 L 199.5 451 Z " /><path fill="rgb(192,192,192)" stroke="rgb(192,192,192)" stroke-width="1" opacity="0.7529411764705882" d="M 153.5 452 L 152.5 454 L 153.5 452 Z " /><path fill="rgb(192,192,192)" stroke="rgb(192,192,192)" stroke-width="1" opacity="0.7529411764705882" d="M 84.5 455 L 87 455.5 L 84.5 456 L 84.5 455 Z " /><path fill="rgb(192,192,192)" stroke="rgb(192,192,192)" stroke-width="1" opacity="0.7529411764705882" d="M 381.5 455 L 384 455.5 L 381.5 456 L 381.5 455 Z " /><path fill="rgb(192,192,192)" stroke="rgb(192,192,192)" stroke-width="1" opacity="0.7529411764705882" d="M 0.5 467 L 1 470.5 L 0 470.5 L 0.5 467 Z " /><path fill="rgb(192,192,192)" stroke="rgb(192,192,192)" stroke-width="1" opacity="0.7529411764705882" d="M 511.5 467 L 512 470.5 L 511 470.5 L 511.5 467 Z " /><path fill="rgb(192,192,192)" stroke="rgb(192,192,192)" stroke-width="1" opacity="0.7529411764705882" d="M 9.5 493 L 11.5 496 L 9.5 493 Z " /><path fill="rgb(192,192,192)" stroke="rgb(192,192,192)" stroke-width="1" opacity="0.7529411764705882" d="M 502.5 493 L 500.5 496 L 502.5 493 Z " /><path fill="rgb(192,192,192)" stroke="rgb(192,192,192)" stroke-width="1" opacity="0.7529411764705882" d="M 16.5 500 L 18.5 503 L 16.5 500 Z " /><path fill="rgb(192,192,192)" stroke="rgb(192,192,192)" stroke-width="1" opacity="0.7529411764705882" d="M 495.5 500 L 493.5 503 L 495.5 500 Z " /><path fill="rgb(192,192,192)" stroke="rgb(192,192,192)" stroke-width="1" opacity="0.7529411764705882" d="M 41.5 511 L 45 511.5 L 41.5 512 L 41.5 511 Z " /><path fill="rgb(192,192,192)" stroke="rgb(192,192,192)" stroke-width="1" opacity="0.7529411764705882" d="M 467.5 511 L 471 511.5 L 467.5 512 L 467.5 511 Z " /><path fill="rgb(255,255,255)" stroke="rgb(255,255,255)" stroke-width="1" opacity="1" d="M 45.5 0 L 466.5 0 L 467.5 1 L 475.5 1 L 484.5 4 L 500 15.5 L 508 27.5 L 511 36.5 L 511 44.5 L 512 45.5 L 512 466.5 L 511 467.5 L 511 475.5 L 508 484.5 L 496.5 500 L 484.5 508 L 475.5 511 L 467.5 511 L 466.5 512 L 45.5 512 L 44.5 511 L 36.5 511 L 27.5 508 L 12 496.5 L 4 484.5 L 1 475.5 L 1 467.5 L 0 466.5 L 0 45.5 L 1 44.5 L 1 36.5 L 4 27.5 L 15.5 12 L 27.5 4 L 36.5 1 L 44.5 1 L 45.5 0 Z M 111 56 L 101 58 L 91 62 L 81 69 Q 70 77 65 91 L 61 109 Q 62 134 75 148 Q 87 162 111 166 Q 136 167 150 155 Q 166 143 171 119 L 171 104 L 169 95 L 160 78 Q 151 66 138 60 L 123 56 L 111 56 Z M 345 184 L 338 186 L 332 186 L 319 190 L 299 201 Q 288 209 282 220 L 281 198 L 279 194 L 272 188 L 206 188 L 202 190 L 196 198 L 196 446 L 199 452 L 207 456 L 271 456 L 277 453 L 281 447 L 281 311 L 286 289 L 294 274 Q 303 260 322 257 L 334 257 L 344 259 L 356 266 Q 363 273 367 284 L 371 301 L 371 311 L 372 312 L 372 448 L 373 450 L 382 456 L 449 456 L 453 454 Q 457 451 459 445 L 459 310 L 458 309 L 457 278 L 456 277 L 454 260 L 447 237 Q 440 220 429 209 Q 415 193 392 187 L 375 184 L 345 184 Z M 84 188 L 80 190 L 74 198 L 74 446 L 77 452 L 85 456 L 148 456 L 153 454 Q 157 451 159 445 L 159 200 L 157 195 Q 155 189 149 188 L 84 188 Z " /><path fill="rgb(66,66,66)" stroke="rgb(66,66,66)" stroke-width="1" opacity="0.2627450980392157" d="M 38.5 0 L 41 0.5 L 38.5 1 L 38.5 0 Z " /><path fill="rgb(66,66,66)" stroke="rgb(66,66,66)" stroke-width="1" opacity="0.2627450980392157" d="M 471.5 0 L 474 0.5 L 471.5 1 L 471.5 0 Z " /><path fill="rgb(66,66,66)" stroke="rgb(66,66,66)" stroke-width="1" opacity="0.2627450980392157" d="M 20.5 7 L 19.5 9 L 20.5 7 Z " /><path fill="rgb(66,66,66)" stroke="rgb(66,66,66)" stroke-width="1" opacity="0.2627450980392157" d="M 491.5 7 L 492.5 9 L 491.5 7 Z " /><path fill="rgb(66,66,66)" stroke="rgb(66,66,66)" stroke-width="1" opacity="0.2627450980392157" d="M 14.5 12 L 12.5 15 L 14.5 12 Z " /><path fill="rgb(66,66,66)" stroke="rgb(66,66,66)" stroke-width="1" opacity="0.2627450980392157" d="M 497.5 12 L 499.5 15 L 497.5 12 Z " /><path fill="rgb(66,66,66)" stroke="rgb(66,66,66)" stroke-width="1" opacity="0.2627450980392157" d="M 8.5 19 L 7.5 21 L 8.5 19 Z " /><path fill="rgb(66,66,66)" stroke="rgb(66,66,66)" stroke-width="1" opacity="0.2627450980392157" d="M 503.5 19 L 504.5 21 L 503.5 19 Z " /><path fill="rgb(66,66,66)" stroke="rgb(66,66,66)" stroke-width="1" opacity="0.2627450980392157" d="M 0.5 38 L 1 40.5 L 0 40.5 L 0.5 38 Z " /><path fill="rgb(66,66,66)" stroke="rgb(66,66,66)" stroke-width="1" opacity="0.2627450980392157" d="M 511.5 38 L 512 40.5 L 511 40.5 L 511.5 38 Z " /><path fill="rgb(66,66,66)" stroke="rgb(66,66,66)" stroke-width="1" opacity="0.2627450980392157" d="M 115.5 56 L 118 56.5 L 115.5 57 L 115.5 56 Z " /><path fill="rgb(66,66,66)" stroke="rgb(66,66,66)" stroke-width="1" opacity="0.2627450980392157" d="M 105.5 57 L 108 57.5 L 105.5 58 L 105.5 57 Z " /><path fill="rgb(66,66,66)" stroke="rgb(66,66,66)" stroke-width="1" opacity="0.2627450980392157" d="M 83.5 67 L 82.5 69 L 83.5 67 Z " /><path fill="rgb(66,66,66)" stroke="rgb(66,66,66)" stroke-width="1" opacity="0.2627450980392157" d="M 151.5 69 L 158.5 77 L 151.5 69 Z " /><path fill="rgb(66,66,66)" stroke="rgb(66,66,66)" stroke-width="1" opacity="0.2627450980392157" d="M 62.5 102 L 63 104.5 L 62 104.5 L 62.5 102 Z " /><path fill="rgb(66,66,66)" stroke="rgb(66,66,66)" stroke-width="1" opacity="0.2627450980392157" d="M 170.5 105 L 171 115.5 L 170 115.5 L 170.5 105 Z " /><path fill="rgb(66,66,66)" stroke="rgb(66,66,66)" stroke-width="1" opacity="0.2627450980392157" d="M 62.5 117 L 63 119.5 L 62 119.5 L 62.5 117 Z " /><path fill="rgb(66,66,66)" stroke="rgb(66,66,66)" stroke-width="1" opacity="0.2627450980392157" d="M 160.5 142 L 159.5 144 L 160.5 142 Z " /><path fill="rgb(66,66,66)" stroke="rgb(66,66,66)" stroke-width="1" opacity="0.2627450980392157" d="M 73.5 144 L 74.5 146 L 73.5 144 Z " /><path fill="rgb(66,66,66)" stroke="rgb(66,66,66)" stroke-width="1" opacity="0.2627450980392157" d="M 157.5 146 L 152.5 152 L 157.5 146 Z " /><path fill="rgb(66,66,66)" stroke="rgb(66,66,66)" stroke-width="1" opacity="0.2627450980392157" d="M 81.5 152 L 82.5 154 L 81.5 152 Z " /><path fill="rgb(66,66,66)" stroke="rgb(66,66,66)" stroke-width="1" opacity="0.2627450980392157" d="M 148.5 154 L 147.5 156 L 148.5 154 Z " /><path fill="rgb(66,66,66)" stroke="rgb(66,66,66)" stroke-width="1" opacity="0.2627450980392157" d="M 106.5 164 L 109 164.5 L 106.5 165 L 106.5 164 Z " /><path fill="rgb(66,66,66)" stroke="rgb(66,66,66)" stroke-width="1" opacity="0.2627450980392157" d="M 351.5 184 L 359 184.5 L 351.5 185 L 351.5 184 Z " /><path fill="rgb(66,66,66)" stroke="rgb(66,66,66)" stroke-width="1" opacity="0.2627450980392157" d="M 363.5 184 L 371 184.5 L 363.5 185 L 363.5 184 Z " /><path fill="rgb(66,66,66)" stroke="rgb(66,66,66)" stroke-width="1" opacity="0.2627450980392157" d="M 340.5 185 L 343 185.5 L 340.5 186 L 340.5 185 Z " /><path fill="rgb(66,66,66)" stroke="rgb(66,66,66)" stroke-width="1" opacity="0.2627450980392157" d="M 84.5 188 L 87 188.5 L 84.5 189 L 84.5 188 Z " /><path fill="rgb(66,66,66)" stroke="rgb(66,66,66)" stroke-width="1" opacity="0.2627450980392157" d="M 145.5 188 L 148 188.5 L 145.5 189 L 145.5 188 Z " /><path fill="rgb(66,66,66)" stroke="rgb(66,66,66)" stroke-width="1" opacity="0.2627450980392157" d="M 203.5 189 L 202.5 191 L 203.5 189 Z " /><path fill="rgb(66,66,66)" stroke="rgb(66,66,66)" stroke-width="1" opacity="0.2627450980392157" d="M 152.5 190 L 155.5 194 L 152.5 190 Z " /><path fill="rgb(66,66,66)" stroke="rgb(66,66,66)" stroke-width="1" opacity="0.2627450980392157" d="M 276.5 191 L 277.5 193 L 276.5 191 Z " /><path fill="rgb(66,66,66)" stroke="rgb(66,66,66)" stroke-width="1" opacity="0.2627450980392157" d="M 306.5 196 L 305.5 198 L 306.5 196 Z " /><path fill="rgb(66,66,66)" stroke="rgb(66,66,66)" stroke-width="1" opacity="0.2627450980392157" d="M 74.5 198 L 75 200.5 L 74 200.5 L 74.5 198 Z " /><path fill="rgb(66,66,66)" stroke="rgb(66,66,66)" stroke-width="1" opacity="0.2627450980392157" d="M 280.5 198 L 281.5 220 L 283 219.5 L 280 221 L 280.5 198 Z " /><path fill="rgb(66,66,66)" stroke="rgb(66,66,66)" stroke-width="1" opacity="0.2627450980392157" d="M 196.5 200 L 197 443.5 L 196 443.5 L 196.5 200 Z " /><path fill="rgb(66,66,66)" stroke="rgb(66,66,66)" stroke-width="1" opacity="0.2627450980392157" d="M 300.5 200 L 299.5 202 L 300.5 200 Z " /><path fill="rgb(66,66,66)" stroke="rgb(66,66,66)" stroke-width="1" opacity="0.2627450980392157" d="M 421.5 202 L 424.5 206 L 421.5 202 Z " /><path fill="rgb(66,66,66)" stroke="rgb(66,66,66)" stroke-width="1" opacity="0.2627450980392157" d="M 295.5 204 L 288.5 212 L 295.5 204 Z " /><path fill="rgb(66,66,66)" stroke="rgb(66,66,66)" stroke-width="1" opacity="0.2627450980392157" d="M 428.5 209 L 431.5 213 L 428.5 209 Z " /><path fill="rgb(66,66,66)" stroke="rgb(66,66,66)" stroke-width="1" opacity="0.2627450980392157" d="M 285.5 215 L 284.5 217 L 285.5 215 Z " /><path fill="rgb(66,66,66)" stroke="rgb(66,66,66)" stroke-width="1" opacity="0.2627450980392157" d="M 324.5 256 L 331 256.5 L 324.5 257 L 324.5 256 Z " /><path fill="rgb(66,66,66)" stroke="rgb(66,66,66)" stroke-width="1" opacity="0.2627450980392157" d="M 355.5 265 L 358.5 269 L 355.5 265 Z " /><path fill="rgb(66,66,66)" stroke="rgb(66,66,66)" stroke-width="1" opacity="0.2627450980392157" d="M 294.5 272 L 293.5 274 L 294.5 272 Z " /><path fill="rgb(66,66,66)" stroke="rgb(66,66,66)" stroke-width="1" opacity="0.2627450980392157" d="M 455.5 272 L 456 274.5 L 455 274.5 L 455.5 272 Z " /><path fill="rgb(66,66,66)" stroke="rgb(66,66,66)" stroke-width="1" opacity="0.2627450980392157" d="M 456.5 280 L 457 283.5 L 456 283.5 L 456.5 280 Z " /><path fill="rgb(66,66,66)" stroke="rgb(66,66,66)" stroke-width="1" opacity="0.2627450980392157" d="M 457.5 295 L 458 301.5 L 457 301.5 L 457.5 295 Z " /><path fill="rgb(66,66,66)" stroke="rgb(66,66,66)" stroke-width="1" opacity="0.2627450980392157" d="M 371.5 302 L 372 306.5 L 371 306.5 L 371.5 302 Z " /><path fill="rgb(66,66,66)" stroke="rgb(66,66,66)" stroke-width="1" opacity="0.2627450980392157" d="M 280.5 312 L 281 445.5 L 280 445.5 L 280.5 312 Z " /><path fill="rgb(66,66,66)" stroke="rgb(66,66,66)" stroke-width="1" opacity="0.2627450980392157" d="M 76.5 449 L 77.5 451 L 76.5 449 Z " /><path fill="rgb(66,66,66)" stroke="rgb(66,66,66)" stroke-width="1" opacity="0.2627450980392157" d="M 375.5 451 L 376.5 453 L 375.5 451 Z " /><path fill="rgb(66,66,66)" stroke="rgb(66,66,66)" stroke-width="1" opacity="0.2627450980392157" d="M 79.5 452 L 80.5 454 L 79.5 452 Z " /><path fill="rgb(66,66,66)" stroke="rgb(66,66,66)" stroke-width="1" opacity="0.2627450980392157" d="M 87.5 455 L 146 455.5 L 87.5 456 L 87.5 455 Z " /><path fill="rgb(66,66,66)" stroke="rgb(66,66,66)" stroke-width="1" opacity="0.2627450980392157" d="M 208.5 455 L 269 455.5 L 208.5 456 L 208.5 455 Z " /><path fill="rgb(66,66,66)" stroke="rgb(66,66,66)" stroke-width="1" opacity="0.2627450980392157" d="M 384.5 455 L 447 455.5 L 384.5 456 L 384.5 455 Z " /><path fill="rgb(66,66,66)" stroke="rgb(66,66,66)" stroke-width="1" opacity="0.2627450980392157" d="M 0.5 471 L 1 473.5 L 0 473.5 L 0.5 471 Z " /><path fill="rgb(66,66,66)" stroke="rgb(66,66,66)" stroke-width="1" opacity="0.2627450980392157" d="M 511.5 471 L 512 473.5 L 511 473.5 L 511.5 471 Z " /><path fill="rgb(66,66,66)" stroke="rgb(66,66,66)" stroke-width="1" opacity="0.2627450980392157" d="M 7.5 491 L 8.5 493 L 7.5 491 Z " /><path fill="rgb(66,66,66)" stroke="rgb(66,66,66)" stroke-width="1" opacity="0.2627450980392157" d="M 504.5 491 L 503.5 493 L 504.5 491 Z " /><path fill="rgb(66,66,66)" stroke="rgb(66,66,66)" stroke-width="1" opacity="0.2627450980392157" d="M 12.5 497 L 14.5 500 L 12.5 497 Z " /><path fill="rgb(66,66,66)" stroke="rgb(66,66,66)" stroke-width="1" opacity="0.2627450980392157" d="M 499.5 497 L 497.5 500 L 499.5 497 Z " /><path fill="rgb(66,66,66)" stroke="rgb(66,66,66)" stroke-width="1" opacity="0.2627450980392157" d="M 19.5 503 L 20.5 505 L 19.5 503 Z " /><path fill="rgb(66,66,66)" stroke="rgb(66,66,66)" stroke-width="1" opacity="0.2627450980392157" d="M 492.5 503 L 491.5 505 L 492.5 503 Z " /><path fill="rgb(66,66,66)" stroke="rgb(66,66,66)" stroke-width="1" opacity="0.2627450980392157" d="M 38.5 511 L 41 511.5 L 38.5 512 L 38.5 511 Z " /><path fill="rgb(66,66,66)" stroke="rgb(66,66,66)" stroke-width="1" opacity="0.2627450980392157" d="M 471.5 511 L 474 511.5 L 471.5 512 L 471.5 511 Z " /><path fill="rgb(0,0,0)" stroke="rgb(0,0,0)" stroke-width="1" opacity="0" d="M 0 0 L 38 0.5 Q 21 3.5 12 14.5 Q 3 23 0.5 38 L 0 0 Z " /><path fill="rgb(0,0,0)" stroke="rgb(0,0,0)" stroke-width="1" opacity="0" d="M 474.5 0 L 512 0 L 512 37.5 L 511 37.5 Q 508.3 20.7 497.5 12 L 491.5 7 Q 484.7 2.3 474.5 1 L 474.5 0 Z " /><path fill="rgb(0,0,0)" stroke="rgb(0,0,0)" stroke-width="1" opacity="0" d="M 108.5 57 L 124.5 57 L 135.5 60 Q 151 66 160 78.5 Q 167.3 87.7 170 101.5 L 170 120.5 Q 165 142.5 149.5 154 L 132.5 163 L 123.5 165 L 109.5 165 Q 86.8 161.2 75 146.5 Q 67.9 138.1 64 126.5 L 62 116.5 L 62 105.5 L 64 95.5 L 68 85.5 Q 73.3 75.8 81.5 69 Q 91.9 59.9 108.5 57 Z " /><path fill="rgb(0,0,0)" stroke="rgb(0,0,0)" stroke-width="1" opacity="0" d="M 359.5 184 Q 366.6 186.4 377.5 185 L 401.5 191 Q 417.1 197.4 428 208.5 Q 440.1 220.9 447 238.5 L 453 258.5 L 456 275.5 L 457 301.5 L 458 302.5 L 458 445.5 L 455 452 L 449.5 455 L 380.5 455 L 374 449.5 L 372 444.5 L 372 302.5 L 367 281.5 Q 362.8 271.8 355.5 265 L 342.5 258 L 324.5 256 Q 323 258.5 317.5 257 L 305.5 262 L 293 273.5 L 286 286.5 L 280 312.5 L 280 447.5 L 275.5 453 L 271.5 455 L 205.5 455 L 199 450.5 L 197 446.5 L 197 197.5 L 201.5 191 L 208.5 188 L 268.5 188 Q 275.9 189.1 279 194.5 L 280 196.5 L 280 221 L 283 219.5 Q 288.7 208.7 298.5 202 Q 309.2 193.7 323.5 189 L 343.5 185 L 358.5 185 L 359.5 184 Z " /><path fill="rgb(0,0,0)" stroke="rgb(0,0,0)" stroke-width="1" opacity="0" d="M 87.5 188 L 144.5 188 L 151.5 190 L 157 195.5 L 158 198.5 L 158 445.5 L 152.5 453 L 148.5 455 L 83.5 455 L 78 452 L 74 442.5 L 74 201.5 L 75 196.5 L 79.5 191 L 87.5 188 Z " /><path fill="rgb(0,0,0)" stroke="rgb(0,0,0)" stroke-width="1" opacity="0" d="M 0.5 474 Q 3.5 491 14.5 500 Q 23 509 38 511.5 L 0 512 L 0.5 474 Z " /><path fill="rgb(0,0,0)" stroke="rgb(0,0,0)" stroke-width="1" opacity="0" d="M 511.5 474 L 512 512 L 474 511.5 Q 491 508.5 500 497.5 Q 509 489 511.5 474 Z " /></svg>